<?xml version="1.0" encoding="UTF-8" standalone="no"?>
<!DOCTYPE svg PUBLIC "-//W3C//DTD SVG 1.1//EN" "http://www.w3.org/Graphics/SVG/1.1/DTD/svg11.dtd">
<svg width="100%" height="100%" viewBox="0 0 681 595" version="1.1" xmlns="http://www.w3.org/2000/svg" xmlns:xlink="http://www.w3.org/1999/xlink" xml:space="preserve" xmlns:serif="http://www.serif.com/" style="fill-rule:evenodd;clip-rule:evenodd;stroke-linecap:round;stroke-linejoin:round;stroke-miterlimit:10;">
    <g transform="matrix(2.26772,0,0,2.26772,12.7942,11.7625)">
        <g transform="matrix(1,0,0,1,-1.24573,-9.90625)">
            <g transform="matrix(0.999323,0,0,1,0.016067,0)">
                <rect x="24.458" y="134.065" width="0.818" height="5.766" style="fill:rgb(206,206,206);fill-opacity:0.498039;fill-rule:nonzero;"/>
            </g>
            <g transform="matrix(0.999323,0,0,1,0.0174199,0)">
                <path d="M29.197,139.831L29.197,139.036C28.886,139.631 28.416,139.928 27.787,139.928C27.278,139.928 26.878,139.743 26.585,139.371C26.293,139 26.147,138.492 26.147,137.848C26.147,137.144 26.313,136.578 26.644,136.15C26.975,135.721 27.411,135.507 27.951,135.507C28.452,135.507 28.868,135.699 29.197,136.083L29.197,133.68L29.969,133.68L29.969,139.831L29.197,139.831ZM29.197,136.609C28.8,136.259 28.423,136.083 28.068,136.083C27.333,136.083 26.965,136.646 26.965,137.77C26.965,138.76 27.292,139.254 27.947,139.254C28.373,139.254 28.79,139.022 29.197,138.557L29.197,136.609Z" style="fill:rgb(206,206,206);fill-opacity:0.498039;fill-rule:nonzero;"/>
            </g>
            <g transform="matrix(0.999323,0,0,1,0.0202778,0)">
                <rect x="30.701" y="133.68" width="0.767" height="6.151" style="fill:rgb(206,206,206);fill-opacity:0.498039;fill-rule:nonzero;"/>
            </g>
            <g transform="matrix(0.999323,0,0,1,0.0215005,0)">
                <path d="M35.607,139.695C35.092,139.85 34.652,139.928 34.286,139.928C33.663,139.928 33.154,139.721 32.761,139.307C32.367,138.893 32.171,138.356 32.171,137.696C32.171,137.055 32.344,136.529 32.691,136.118C33.038,135.708 33.481,135.503 34.021,135.503C34.533,135.503 34.928,135.685 35.207,136.048C35.487,136.412 35.626,136.929 35.626,137.599L35.622,137.836L32.954,137.836C33.065,138.841 33.558,139.344 34.43,139.344C34.75,139.344 35.142,139.258 35.607,139.087L35.607,139.695ZM32.989,137.26L34.855,137.26C34.855,136.473 34.561,136.079 33.974,136.079C33.385,136.079 33.056,136.473 32.989,137.26Z" style="fill:rgb(206,206,206);fill-opacity:0.498039;fill-rule:nonzero;"/>
            </g>
        </g>
        <g id="IDLE">
            <g transform="matrix(0,1,1,0,-119.094,97.8169)">
                <ellipse cx="29.714" cy="147.563" rx="26.927" ry="26.909" style="fill:rgb(206,206,206);fill-opacity:0.498039;"/>
            </g>
            <g transform="matrix(0.996621,0,0,0.997297,-1.24573,-8.03133)">
                <clipPath id="_clip1">
                    <path d="M29.815,108.93C14.903,108.93 2.815,121.02 2.815,135.93C2.815,150.84 14.903,162.93 29.815,162.93C44.727,162.93 56.815,150.84 56.815,135.93C56.815,121.02 44.727,108.93 29.815,108.93ZM0,-1.88L292.99,-1.88L292.99,271.86L0,271.86L0,-1.88Z"/>
                </clipPath>
                <g clip-path="url(#_clip1)">
                    <path d="M2.815,135.93C2.815,121.02 14.903,108.93 29.815,108.93C44.727,108.93 56.815,121.02 56.815,135.93C56.815,150.84 44.727,162.93 29.815,162.93C14.903,162.93 2.815,150.84 2.815,135.93" style="fill:none;stroke:rgb(206,206,206);stroke-opacity:0.498039;stroke-width:0.25px;"/>
                </g>
            </g>
            <g transform="matrix(1,0,0,1,-1.24573,-22.8896)">
                <clipPath id="_clip2">
                    <path d="M1.37,148.985C1.37,134.115 13.418,122.058 28.279,122.058C43.141,122.058 55.188,134.115 55.188,148.985C55.188,163.854 43.141,175.912 28.279,175.912C13.418,175.912 1.37,163.854 1.37,148.985Z"/>
                </clipPath>
                <g clip-path="url(#_clip2)">
                    <rect x="0.66" y="121.354" width="55.239" height="55.276" style="fill:url(#_Linear3);"/>
                </g>
            </g>
            <g transform="matrix(0,0.997297,0.996621,0,-109.872,97.7968)">
                <circle cx="28.375" cy="137.37" r="27" style="fill:none;stroke:rgb(62,62,62);stroke-width:0.25px;"/>
            </g>
            <g transform="matrix(1,0,0,1,-1.24573,-22.9015)">
                <clipPath id="_clip4">
                    <path d="M9.098,148.997C9.098,138.395 17.686,129.809 28.279,129.809C38.872,129.809 47.46,138.395 47.46,148.997C47.46,159.598 38.872,168.195 28.279,168.195C17.686,168.195 9.098,159.598 9.098,148.997Z"/>
                </clipPath>
                <g clip-path="url(#_clip4)">
                    <rect x="8.388" y="129.093" width="39.783" height="39.81" style="fill:url(#_Linear5);"/>
                </g>
            </g>
            <g transform="matrix(0,0.997297,0.996621,0,-109.867,97.8017)">
                <ellipse cx="28.375" cy="137.365" rx="19.245" ry="19.246" style="fill:none;stroke:rgb(62,62,62);stroke-width:0.25px;"/>
            </g>
            <g transform="matrix(1,0,0,1,-24.4158,-62.7652)">
                <rect x="45.746" y="186.004" width="0.758" height="5.727" style="fill:rgb(62,62,62);fill-rule:nonzero;"/>
                <path d="M50.441,191.73L50.441,191.207C50.178,191.618 49.792,191.824 49.281,191.824C48.951,191.824 48.646,191.733 48.369,191.551C48.092,191.368 47.877,191.114 47.725,190.787C47.572,190.46 47.496,190.085 47.496,189.66C47.496,189.246 47.565,188.87 47.703,188.533C47.841,188.196 48.048,187.938 48.324,187.758C48.6,187.578 48.909,187.488 49.25,187.488C49.5,187.488 49.723,187.541 49.918,187.646C50.113,187.752 50.272,187.889 50.395,188.059L50.395,186.004L51.094,186.004L51.094,191.73L50.441,191.73ZM48.219,189.66C48.219,190.191 48.331,190.589 48.555,190.852C48.779,191.115 49.043,191.246 49.348,191.246C49.655,191.246 49.916,191.12 50.131,190.869C50.346,190.618 50.453,190.234 50.453,189.719C50.453,189.151 50.344,188.734 50.125,188.469C49.906,188.203 49.637,188.07 49.316,188.07C49.004,188.07 48.743,188.198 48.533,188.453C48.324,188.708 48.219,189.111 48.219,189.66Z" style="fill:rgb(62,62,62);fill-rule:nonzero;"/>
                <rect x="52.184" y="186.004" width="0.703" height="5.727" style="fill:rgb(62,62,62);fill-rule:nonzero;"/>
                <path d="M56.816,190.395L57.543,190.484C57.428,190.909 57.216,191.238 56.906,191.473C56.596,191.707 56.201,191.824 55.719,191.824C55.112,191.824 54.631,191.637 54.275,191.264C53.92,190.89 53.742,190.366 53.742,189.691C53.742,188.993 53.922,188.452 54.281,188.066C54.641,187.681 55.107,187.488 55.68,187.488C56.234,187.488 56.688,187.677 57.039,188.055C57.391,188.432 57.566,188.964 57.566,189.648C57.566,189.69 57.565,189.753 57.563,189.836L54.469,189.836C54.495,190.292 54.624,190.641 54.855,190.883C55.087,191.125 55.376,191.246 55.723,191.246C55.98,191.246 56.201,191.178 56.383,191.043C56.565,190.908 56.71,190.691 56.816,190.395ZM54.508,189.258L56.824,189.258C56.793,188.909 56.704,188.647 56.559,188.473C56.335,188.202 56.044,188.066 55.688,188.066C55.365,188.066 55.093,188.174 54.873,188.391C54.653,188.607 54.531,188.896 54.508,189.258Z" style="fill:rgb(62,62,62);fill-rule:nonzero;"/>
            </g>
        </g>
        <g id="Command-Busy" serif:id="Command Busy">
            <g transform="matrix(0,1,1,0,6.47527,-27.7523)">
                <ellipse cx="155.284" cy="147.563" rx="26.927" ry="26.909" style="fill:rgb(206,206,206);fill-opacity:0.498039;"/>
            </g>
            <g transform="matrix(0.996621,0,0,0.997297,-1.24573,-8.03133)">
                <clipPath id="_clip6">
                    <path d="M155.81,108.93C140.9,108.93 128.81,121.02 128.82,135.93C128.82,150.84 140.9,162.93 155.82,162.93C170.73,162.93 182.81,150.84 182.81,135.93C182.81,121.02 170.73,108.93 155.81,108.93ZM0,-1.88L292.99,-1.88L292.99,271.86L0,271.86L0,-1.88Z"/>
                </clipPath>
                <g clip-path="url(#_clip6)">
                    <path d="M128.82,135.93C128.81,121.02 140.9,108.93 155.81,108.93C170.73,108.93 182.81,121.02 182.81,135.93C182.81,150.84 170.73,162.93 155.82,162.93C140.9,162.93 128.82,150.84 128.82,135.93" style="fill:none;stroke:rgb(206,206,206);stroke-opacity:0.498039;stroke-width:0.25px;"/>
                </g>
            </g>
            <g transform="matrix(1,0,0,1,-1.24573,-22.8896)">
                <clipPath id="_clip7">
                    <path d="M126.94,148.985C126.94,134.115 138.989,122.058 153.848,122.058C168.718,122.058 180.757,134.115 180.767,148.985C180.767,163.854 168.718,175.912 153.858,175.912C138.989,175.912 126.95,163.854 126.94,148.985Z"/>
                </clipPath>
                <g clip-path="url(#_clip7)">
                    <rect x="126.232" y="121.354" width="55.239" height="55.276" style="fill:url(#_Linear8);"/>
                </g>
            </g>
            <g transform="matrix(0,0.997297,0.996621,0,15.7018,-27.8626)">
                <ellipse cx="154.375" cy="137.37" rx="27" ry="27.005" style="fill:none;stroke:rgb(62,62,62);stroke-width:0.25px;"/>
            </g>
            <g transform="matrix(1,0,0,1,-100.428,-13.1446)">
                <g>
                    <path d="M239.288,135.966L240.046,136.158C239.887,136.78 239.601,137.255 239.188,137.582C238.775,137.908 238.271,138.072 237.675,138.072C237.057,138.072 236.555,137.946 236.169,137.695C235.782,137.444 235.488,137.08 235.286,136.603C235.084,136.126 234.983,135.615 234.983,135.068C234.983,134.471 235.097,133.951 235.325,133.507C235.553,133.063 235.877,132.726 236.298,132.496C236.718,132.265 237.181,132.15 237.686,132.15C238.259,132.15 238.741,132.296 239.132,132.587C239.522,132.879 239.794,133.289 239.948,133.818L239.202,133.994C239.069,133.577 238.876,133.274 238.624,133.083C238.371,132.893 238.053,132.798 237.671,132.798C237.231,132.798 236.863,132.904 236.567,133.115C236.272,133.326 236.064,133.609 235.944,133.964C235.824,134.32 235.764,134.686 235.764,135.064C235.764,135.551 235.835,135.976 235.977,136.339C236.119,136.703 236.34,136.974 236.639,137.154C236.939,137.333 237.263,137.423 237.612,137.423C238.037,137.423 238.396,137.301 238.69,137.056C238.984,136.811 239.184,136.448 239.288,135.966Z" style="fill:rgb(62,62,62);fill-rule:nonzero;"/>
                    <path d="M240.628,135.9C240.628,135.132 240.841,134.563 241.268,134.193C241.625,133.886 242.06,133.732 242.573,133.732C243.143,133.732 243.609,133.919 243.971,134.292C244.333,134.666 244.514,135.182 244.514,135.841C244.514,136.375 244.434,136.795 244.274,137.101C244.114,137.407 243.881,137.645 243.575,137.814C243.269,137.983 242.935,138.068 242.573,138.068C241.992,138.068 241.523,137.882 241.165,137.509C240.807,137.137 240.628,136.6 240.628,135.9ZM241.35,135.9C241.35,136.431 241.466,136.829 241.698,137.093C241.93,137.358 242.221,137.49 242.573,137.49C242.922,137.49 243.212,137.357 243.444,137.091C243.676,136.826 243.792,136.421 243.792,135.876C243.792,135.363 243.675,134.975 243.442,134.71C243.209,134.446 242.919,134.314 242.573,134.314C242.221,134.314 241.93,134.445 241.698,134.708C241.466,134.971 241.35,135.369 241.35,135.9Z" style="fill:rgb(62,62,62);fill-rule:nonzero;"/>
                    <path d="M245.339,137.974L245.339,133.826L245.968,133.826L245.968,134.408C246.098,134.205 246.271,134.041 246.487,133.917C246.703,133.794 246.949,133.732 247.225,133.732C247.533,133.732 247.785,133.796 247.981,133.923C248.178,134.051 248.316,134.229 248.397,134.458C248.725,133.974 249.152,133.732 249.678,133.732C250.09,133.732 250.406,133.846 250.628,134.074C250.849,134.302 250.96,134.652 250.96,135.126L250.96,137.974L250.26,137.974L250.26,135.361C250.26,135.08 250.238,134.877 250.192,134.753C250.147,134.63 250.064,134.53 249.944,134.455C249.824,134.379 249.684,134.341 249.522,134.341C249.231,134.341 248.988,134.438 248.796,134.632C248.603,134.826 248.507,135.137 248.507,135.564L248.507,137.974L247.803,137.974L247.803,135.279C247.803,134.966 247.746,134.732 247.632,134.576C247.517,134.419 247.33,134.341 247.069,134.341C246.871,134.341 246.688,134.393 246.52,134.498C246.352,134.602 246.231,134.754 246.155,134.955C246.08,135.155 246.042,135.444 246.042,135.822L246.042,137.974L245.339,137.974Z" style="fill:rgb(62,62,62);fill-rule:nonzero;"/>
                    <path d="M252.003,137.974L252.003,133.826L252.632,133.826L252.632,134.408C252.762,134.205 252.935,134.041 253.151,133.917C253.367,133.794 253.613,133.732 253.889,133.732C254.197,133.732 254.449,133.796 254.645,133.923C254.842,134.051 254.981,134.229 255.061,134.458C255.389,133.974 255.816,133.732 256.343,133.732C256.754,133.732 257.07,133.846 257.292,134.074C257.513,134.302 257.624,134.652 257.624,135.126L257.624,137.974L256.925,137.974L256.925,135.361C256.925,135.08 256.902,134.877 256.856,134.753C256.811,134.63 256.728,134.53 256.608,134.455C256.488,134.379 256.348,134.341 256.186,134.341C255.895,134.341 255.652,134.438 255.46,134.632C255.267,134.826 255.171,135.137 255.171,135.564L255.171,137.974L254.468,137.974L254.468,135.279C254.468,134.966 254.41,134.732 254.296,134.576C254.181,134.419 253.994,134.341 253.733,134.341C253.535,134.341 253.352,134.393 253.184,134.498C253.016,134.602 252.895,134.754 252.819,134.955C252.744,135.155 252.706,135.444 252.706,135.822L252.706,137.974L252.003,137.974Z" style="fill:rgb(62,62,62);fill-rule:nonzero;"/>
                    <path d="M261.374,137.462C261.113,137.684 260.863,137.84 260.622,137.931C260.381,138.022 260.122,138.068 259.846,138.068C259.391,138.068 259.04,137.957 258.796,137.734C258.551,137.511 258.428,137.227 258.428,136.88C258.428,136.677 258.475,136.492 258.567,136.324C258.66,136.156 258.781,136.021 258.93,135.919C259.08,135.818 259.249,135.741 259.436,135.689C259.574,135.652 259.783,135.617 260.061,135.583C260.629,135.516 261.047,135.435 261.315,135.341C261.318,135.245 261.319,135.184 261.319,135.158C261.319,134.871 261.253,134.669 261.12,134.552C260.94,134.393 260.673,134.314 260.319,134.314C259.988,134.314 259.744,134.372 259.587,134.488C259.429,134.604 259.313,134.809 259.237,135.103L258.55,135.009C258.612,134.715 258.715,134.477 258.858,134.296C259.001,134.115 259.208,133.976 259.479,133.878C259.75,133.781 260.064,133.732 260.421,133.732C260.775,133.732 261.063,133.774 261.284,133.857C261.505,133.94 261.668,134.045 261.772,134.171C261.876,134.298 261.949,134.457 261.991,134.65C262.014,134.77 262.026,134.986 262.026,135.298L262.026,136.236C262.026,136.889 262.041,137.303 262.071,137.476C262.101,137.649 262.16,137.815 262.249,137.974L261.514,137.974C261.441,137.828 261.395,137.658 261.374,137.462ZM261.315,135.892C261.06,135.996 260.677,136.085 260.167,136.158C259.878,136.199 259.673,136.246 259.553,136.298C259.434,136.35 259.341,136.427 259.276,136.527C259.211,136.627 259.178,136.738 259.178,136.861C259.178,137.048 259.249,137.205 259.391,137.33C259.533,137.455 259.741,137.517 260.014,137.517C260.285,137.517 260.526,137.458 260.737,137.339C260.948,137.221 261.103,137.059 261.202,136.853C261.277,136.694 261.315,136.46 261.315,136.15L261.315,135.892Z" style="fill:rgb(62,62,62);fill-rule:nonzero;"/>
                    <path d="M263.116,137.974L263.116,133.826L263.749,133.826L263.749,134.416C264.053,133.96 264.494,133.732 265.069,133.732C265.319,133.732 265.549,133.777 265.759,133.867C265.968,133.957 266.125,134.074 266.229,134.22C266.333,134.366 266.406,134.539 266.448,134.74C266.474,134.87 266.487,135.098 266.487,135.423L266.487,137.974L265.784,137.974L265.784,135.451C265.784,135.164 265.757,134.95 265.702,134.808C265.647,134.666 265.55,134.553 265.411,134.468C265.272,134.384 265.108,134.341 264.921,134.341C264.621,134.341 264.363,134.436 264.145,134.626C263.928,134.817 263.819,135.177 263.819,135.708L263.819,137.974L263.116,137.974Z" style="fill:rgb(62,62,62);fill-rule:nonzero;"/>
                    <path d="M270.257,137.974L270.257,137.451C269.994,137.862 269.607,138.068 269.096,138.068C268.766,138.068 268.462,137.977 268.184,137.794C267.907,137.612 267.692,137.358 267.54,137.031C267.387,136.704 267.311,136.328 267.311,135.904C267.311,135.49 267.38,135.114 267.518,134.777C267.656,134.44 267.863,134.181 268.139,134.001C268.415,133.822 268.724,133.732 269.065,133.732C269.315,133.732 269.538,133.785 269.733,133.89C269.928,133.996 270.087,134.133 270.21,134.302L270.21,132.248L270.909,132.248L270.909,137.974L270.257,137.974ZM268.034,135.904C268.034,136.435 268.146,136.832 268.37,137.095C268.594,137.358 268.858,137.49 269.163,137.49C269.47,137.49 269.731,137.364 269.946,137.113C270.161,136.861 270.268,136.478 270.268,135.962C270.268,135.395 270.159,134.978 269.94,134.712C269.721,134.447 269.452,134.314 269.132,134.314C268.819,134.314 268.558,134.442 268.348,134.697C268.139,134.952 268.034,135.354 268.034,135.904Z" style="fill:rgb(62,62,62);fill-rule:nonzero;"/>
                    <path d="M244.729,146.236L244.729,140.509L246.878,140.509C247.315,140.509 247.666,140.567 247.93,140.683C248.195,140.799 248.402,140.977 248.552,141.218C248.701,141.459 248.776,141.711 248.776,141.974C248.776,142.219 248.71,142.449 248.577,142.666C248.444,142.882 248.244,143.056 247.975,143.189C248.322,143.291 248.588,143.464 248.774,143.708C248.96,143.953 249.053,144.242 249.053,144.576C249.053,144.844 248.997,145.093 248.884,145.324C248.77,145.554 248.63,145.732 248.464,145.857C248.297,145.982 248.088,146.076 247.837,146.14C247.585,146.204 247.277,146.236 246.913,146.236L244.729,146.236ZM245.487,142.916L246.725,142.916C247.061,142.916 247.302,142.893 247.448,142.849C247.641,142.792 247.786,142.697 247.884,142.564C247.981,142.431 248.03,142.264 248.03,142.064C248.03,141.874 247.984,141.707 247.893,141.562C247.802,141.417 247.672,141.319 247.503,141.265C247.333,141.212 247.043,141.185 246.632,141.185L245.487,141.185L245.487,142.916ZM245.487,145.56L246.913,145.56C247.158,145.56 247.33,145.551 247.428,145.533C247.603,145.501 247.749,145.449 247.866,145.376C247.983,145.304 248.08,145.197 248.155,145.058C248.231,144.919 248.268,144.758 248.268,144.576C248.268,144.362 248.214,144.177 248.104,144.019C247.995,143.861 247.843,143.751 247.649,143.687C247.455,143.623 247.176,143.591 246.811,143.591L245.487,143.591L245.487,145.56Z" style="fill:rgb(62,62,62);fill-rule:nonzero;"/>
                    <path d="M252.725,146.236L252.725,145.626C252.402,146.095 251.964,146.33 251.409,146.33C251.164,146.33 250.936,146.283 250.723,146.189C250.511,146.095 250.354,145.977 250.251,145.835C250.148,145.694 250.076,145.52 250.034,145.314C250.005,145.176 249.991,144.957 249.991,144.658L249.991,142.087L250.694,142.087L250.694,144.388C250.694,144.755 250.708,145.003 250.737,145.13C250.781,145.315 250.875,145.46 251.018,145.566C251.162,145.671 251.339,145.724 251.55,145.724C251.76,145.724 251.958,145.67 252.143,145.562C252.328,145.454 252.459,145.307 252.536,145.121C252.613,144.934 252.651,144.664 252.651,144.31L252.651,142.087L253.354,142.087L253.354,146.236L252.725,146.236Z" style="fill:rgb(62,62,62);fill-rule:nonzero;"/>
                    <path d="M254.175,144.998L254.87,144.888C254.909,145.167 255.018,145.38 255.196,145.529C255.374,145.677 255.624,145.751 255.944,145.751C256.267,145.751 256.507,145.686 256.663,145.554C256.819,145.423 256.897,145.268 256.897,145.091C256.897,144.932 256.828,144.807 256.69,144.716C256.594,144.654 256.354,144.574 255.971,144.478C255.456,144.348 255.098,144.235 254.899,144.14C254.7,144.045 254.549,143.914 254.446,143.746C254.343,143.578 254.292,143.392 254.292,143.189C254.292,143.004 254.334,142.833 254.419,142.675C254.503,142.518 254.619,142.387 254.764,142.283C254.874,142.202 255.023,142.134 255.212,142.078C255.4,142.022 255.603,141.994 255.819,141.994C256.145,141.994 256.43,142.041 256.677,142.134C256.923,142.228 257.104,142.355 257.221,142.515C257.339,142.675 257.419,142.889 257.464,143.158L256.776,143.251C256.745,143.038 256.654,142.871 256.505,142.751C256.355,142.632 256.143,142.572 255.87,142.572C255.547,142.572 255.316,142.625 255.178,142.732C255.04,142.839 254.971,142.964 254.971,143.107C254.971,143.198 255,143.28 255.057,143.353C255.115,143.429 255.205,143.491 255.327,143.541C255.397,143.567 255.604,143.626 255.948,143.72C256.445,143.853 256.792,143.962 256.989,144.046C257.186,144.131 257.34,144.254 257.452,144.416C257.564,144.577 257.62,144.777 257.62,145.017C257.62,145.251 257.552,145.472 257.415,145.679C257.278,145.886 257.081,146.046 256.823,146.16C256.565,146.273 256.274,146.33 255.948,146.33C255.409,146.33 254.998,146.218 254.716,145.994C254.433,145.77 254.253,145.438 254.175,144.998Z" style="fill:rgb(62,62,62);fill-rule:nonzero;"/>
                    <path d="M258.425,147.833L258.346,147.173C258.5,147.215 258.634,147.236 258.749,147.236C258.905,147.236 259.03,147.21 259.124,147.158C259.218,147.106 259.294,147.033 259.354,146.939C259.399,146.869 259.47,146.694 259.569,146.416C259.582,146.376 259.603,146.319 259.632,146.244L258.057,142.087L258.815,142.087L259.678,144.49C259.79,144.794 259.891,145.115 259.979,145.451C260.06,145.128 260.156,144.813 260.268,144.505L261.155,142.087L261.858,142.087L260.28,146.306C260.111,146.762 259.979,147.076 259.885,147.248C259.76,147.479 259.617,147.649 259.456,147.757C259.294,147.865 259.102,147.919 258.878,147.919C258.742,147.919 258.591,147.891 258.425,147.833Z" style="fill:rgb(62,62,62);fill-rule:nonzero;"/>
                </g>
            </g>
        </g>
        <g id="Data-Last" serif:id="Data Last">
            <g transform="matrix(0,1,1,0,42.3099,-207.198)">
                <ellipse cx="262.924" cy="219.368" rx="26.927" ry="26.914" style="fill:rgb(206,206,206);fill-opacity:0.498039;"/>
            </g>
            <g transform="matrix(0.996621,0,0,0.997297,-1.24573,-151.642)">
                <clipPath id="_clip9">
                    <path d="M263.81,180.93C248.9,180.93 236.81,193.02 236.82,207.93C236.82,222.84 248.9,234.93 263.82,234.93C278.73,234.93 290.82,222.84 290.82,207.93C290.82,193.02 278.73,180.93 263.81,180.93ZM0,142.12L292.99,142.12L292.99,415.86L0,415.86L0,142.12Z"/>
                </clipPath>
                <g clip-path="url(#_clip9)">
                    <path d="M236.82,207.93C236.81,193.02 248.9,180.93 263.81,180.93C278.73,180.93 290.82,193.02 290.82,207.93C290.82,222.84 278.73,234.93 263.82,234.93C248.9,234.93 236.82,222.84 236.82,207.93" style="fill:none;stroke:rgb(206,206,206);stroke-opacity:0.498039;stroke-width:0.25px;"/>
                </g>
            </g>
            <g transform="matrix(1,0,0,1,-1.24573,-166.5)">
                <clipPath id="_clip10">
                    <path d="M234.585,220.79C234.585,205.92 246.624,193.863 261.483,193.863C276.353,193.863 288.392,205.92 288.402,220.79C288.402,235.66 276.353,247.717 261.493,247.717C246.624,247.717 234.585,235.66 234.585,220.79Z"/>
                </clipPath>
                <g clip-path="url(#_clip10)">
                    <rect x="233.867" y="193.159" width="55.239" height="55.276" style="fill:url(#_Linear11);"/>
                </g>
            </g>
            <g transform="matrix(0,0.997297,0.996621,0,51.5852,-207.381)">
                <circle cx="262.38" cy="209.37" r="27" style="fill:none;stroke:rgb(62,62,62);stroke-width:0.25px;"/>
            </g>
            <g transform="matrix(1,0,0,1,-4.20153,-62.0022)">
                <g>
                    <path d="M256.617,114.805L256.617,109.078L258.59,109.078C259.035,109.078 259.375,109.106 259.609,109.16C259.938,109.236 260.217,109.373 260.449,109.57C260.751,109.826 260.977,110.152 261.127,110.549C261.277,110.946 261.352,111.4 261.352,111.91C261.352,112.345 261.301,112.731 261.199,113.067C261.098,113.402 260.967,113.68 260.809,113.901C260.65,114.121 260.476,114.294 260.287,114.42C260.098,114.546 259.87,114.642 259.604,114.707C259.337,114.772 259.03,114.805 258.684,114.805L256.617,114.805ZM257.375,114.129L258.598,114.129C258.975,114.129 259.272,114.094 259.486,114.024C259.701,113.953 259.872,113.854 260,113.727C260.18,113.547 260.32,113.305 260.42,113.002C260.52,112.699 260.57,112.331 260.57,111.899C260.57,111.3 260.472,110.839 260.275,110.518C260.079,110.196 259.84,109.981 259.559,109.871C259.355,109.793 259.029,109.754 258.578,109.754L257.375,109.754L257.375,114.129Z" style="fill:rgb(62,62,62);fill-rule:nonzero;"/>
                    <path d="M265.012,114.293C264.751,114.514 264.501,114.671 264.26,114.762C264.019,114.853 263.76,114.899 263.484,114.899C263.029,114.899 262.678,114.787 262.434,114.565C262.189,114.342 262.066,114.057 262.066,113.711C262.066,113.508 262.113,113.322 262.205,113.154C262.298,112.986 262.419,112.852 262.568,112.75C262.718,112.649 262.887,112.572 263.074,112.52C263.212,112.483 263.421,112.448 263.699,112.414C264.267,112.346 264.685,112.266 264.953,112.172C264.956,112.076 264.957,112.014 264.957,111.988C264.957,111.702 264.891,111.5 264.758,111.383C264.578,111.224 264.311,111.145 263.957,111.145C263.626,111.145 263.382,111.203 263.225,111.318C263.067,111.434 262.951,111.639 262.875,111.934L262.188,111.84C262.25,111.546 262.353,111.308 262.496,111.127C262.639,110.946 262.846,110.807 263.117,110.709C263.388,110.611 263.702,110.563 264.059,110.563C264.413,110.563 264.701,110.604 264.922,110.688C265.143,110.771 265.306,110.876 265.41,111.002C265.514,111.128 265.587,111.288 265.629,111.481C265.652,111.6 265.664,111.817 265.664,112.129L265.664,113.067C265.664,113.72 265.679,114.134 265.709,114.307C265.739,114.48 265.798,114.646 265.887,114.805L265.152,114.805C265.079,114.659 265.033,114.488 265.012,114.293ZM264.953,112.723C264.698,112.827 264.315,112.915 263.805,112.988C263.516,113.03 263.311,113.077 263.191,113.129C263.072,113.181 262.979,113.257 262.914,113.358C262.849,113.458 262.816,113.569 262.816,113.692C262.816,113.879 262.887,114.035 263.029,114.16C263.171,114.285 263.379,114.348 263.652,114.348C263.923,114.348 264.164,114.289 264.375,114.17C264.586,114.052 264.741,113.889 264.84,113.684C264.915,113.525 264.953,113.29 264.953,112.981L264.953,112.723Z" style="fill:rgb(62,62,62);fill-rule:nonzero;"/>
                    <path d="M268.289,114.176L268.391,114.797C268.193,114.839 268.016,114.859 267.859,114.859C267.604,114.859 267.406,114.819 267.266,114.738C267.125,114.658 267.026,114.552 266.969,114.42C266.911,114.289 266.883,114.012 266.883,113.59L266.883,111.203L266.367,111.203L266.367,110.656L266.883,110.656L266.883,109.629L267.582,109.207L267.582,110.656L268.289,110.656L268.289,111.203L267.582,111.203L267.582,113.629C267.582,113.83 267.594,113.958 267.619,114.016C267.644,114.073 267.684,114.119 267.74,114.152C267.796,114.186 267.876,114.203 267.98,114.203C268.059,114.203 268.161,114.194 268.289,114.176Z" style="fill:rgb(62,62,62);fill-rule:nonzero;"/>
                    <path d="M271.684,114.293C271.423,114.514 271.173,114.671 270.932,114.762C270.691,114.853 270.432,114.899 270.156,114.899C269.701,114.899 269.35,114.787 269.105,114.565C268.861,114.342 268.738,114.057 268.738,113.711C268.738,113.508 268.785,113.322 268.877,113.154C268.969,112.986 269.091,112.852 269.24,112.75C269.39,112.649 269.559,112.572 269.746,112.52C269.884,112.483 270.092,112.448 270.371,112.414C270.939,112.346 271.357,112.266 271.625,112.172C271.628,112.076 271.629,112.014 271.629,111.988C271.629,111.702 271.563,111.5 271.43,111.383C271.25,111.224 270.983,111.145 270.629,111.145C270.298,111.145 270.054,111.203 269.897,111.318C269.739,111.434 269.622,111.639 269.547,111.934L268.859,111.84C268.922,111.546 269.025,111.308 269.168,111.127C269.311,110.946 269.518,110.807 269.789,110.709C270.06,110.611 270.374,110.563 270.73,110.563C271.085,110.563 271.372,110.604 271.594,110.688C271.815,110.771 271.978,110.876 272.082,111.002C272.186,111.128 272.259,111.288 272.301,111.481C272.324,111.6 272.336,111.817 272.336,112.129L272.336,113.067C272.336,113.72 272.351,114.134 272.381,114.307C272.411,114.48 272.47,114.646 272.559,114.805L271.824,114.805C271.751,114.659 271.704,114.488 271.684,114.293ZM271.625,112.723C271.37,112.827 270.987,112.915 270.477,112.988C270.188,113.03 269.983,113.077 269.863,113.129C269.744,113.181 269.651,113.257 269.586,113.358C269.521,113.458 269.488,113.569 269.488,113.692C269.488,113.879 269.559,114.035 269.701,114.16C269.843,114.285 270.051,114.348 270.324,114.348C270.595,114.348 270.836,114.289 271.047,114.17C271.258,114.052 271.413,113.889 271.512,113.684C271.587,113.525 271.625,113.29 271.625,112.981L271.625,112.723Z" style="fill:rgb(62,62,62);fill-rule:nonzero;"/>
                    <path d="M257.475,123.067L257.475,117.34L258.232,117.34L258.232,122.391L261.053,122.391L261.053,123.067L257.475,123.067Z" style="fill:rgb(62,62,62);fill-rule:nonzero;"/>
                    <path d="M264.572,122.555C264.312,122.776 264.061,122.932 263.82,123.024C263.579,123.115 263.321,123.16 263.045,123.16C262.589,123.16 262.239,123.049 261.994,122.826C261.749,122.604 261.627,122.319 261.627,121.973C261.627,121.77 261.673,121.584 261.766,121.416C261.858,121.248 261.979,121.113 262.129,121.012C262.279,120.91 262.447,120.833 262.635,120.781C262.773,120.745 262.981,120.71 263.26,120.676C263.827,120.608 264.245,120.527 264.514,120.434C264.516,120.337 264.518,120.276 264.518,120.25C264.518,119.964 264.451,119.762 264.318,119.645C264.139,119.486 263.872,119.406 263.518,119.406C263.187,119.406 262.943,119.464 262.785,119.58C262.628,119.696 262.511,119.901 262.436,120.195L261.748,120.102C261.811,119.807 261.913,119.57 262.057,119.389C262.2,119.208 262.407,119.068 262.678,118.971C262.949,118.873 263.262,118.824 263.619,118.824C263.973,118.824 264.261,118.866 264.482,118.949C264.704,119.033 264.867,119.137 264.971,119.264C265.075,119.39 265.148,119.55 265.189,119.742C265.213,119.862 265.225,120.078 265.225,120.391L265.225,121.328C265.225,121.982 265.24,122.395 265.27,122.568C265.299,122.742 265.359,122.908 265.447,123.067L264.713,123.067C264.64,122.921 264.593,122.75 264.572,122.555ZM264.514,120.984C264.258,121.089 263.876,121.177 263.365,121.25C263.076,121.292 262.872,121.339 262.752,121.391C262.632,121.443 262.54,121.519 262.475,121.619C262.41,121.72 262.377,121.831 262.377,121.953C262.377,122.141 262.448,122.297 262.59,122.422C262.732,122.547 262.939,122.609 263.213,122.609C263.484,122.609 263.725,122.55 263.936,122.432C264.147,122.313 264.301,122.151 264.4,121.945C264.476,121.787 264.514,121.552 264.514,121.242L264.514,120.984Z" style="fill:rgb(62,62,62);fill-rule:nonzero;"/>
                    <path d="M266.033,121.828L266.729,121.719C266.768,121.998 266.876,122.211 267.055,122.359C267.233,122.508 267.482,122.582 267.803,122.582C268.126,122.582 268.365,122.516 268.522,122.385C268.678,122.253 268.756,122.099 268.756,121.922C268.756,121.763 268.687,121.638 268.549,121.547C268.452,121.484 268.213,121.405 267.83,121.309C267.314,121.179 266.957,121.066 266.758,120.971C266.559,120.876 266.408,120.744 266.305,120.576C266.202,120.408 266.15,120.223 266.15,120.02C266.15,119.835 266.193,119.664 266.277,119.506C266.362,119.348 266.477,119.218 266.623,119.113C266.732,119.033 266.882,118.964 267.07,118.908C267.259,118.852 267.462,118.824 267.678,118.824C268.003,118.824 268.289,118.871 268.535,118.965C268.781,119.059 268.963,119.186 269.08,119.346C269.197,119.506 269.278,119.72 269.322,119.988L268.635,120.082C268.604,119.869 268.513,119.702 268.363,119.582C268.214,119.462 268.002,119.402 267.729,119.402C267.406,119.402 267.175,119.456 267.037,119.563C266.899,119.669 266.83,119.794 266.83,119.938C266.83,120.029 266.859,120.111 266.916,120.184C266.973,120.259 267.063,120.322 267.186,120.371C267.256,120.397 267.463,120.457 267.807,120.551C268.304,120.684 268.651,120.792 268.848,120.877C269.044,120.962 269.199,121.085 269.311,121.246C269.423,121.408 269.479,121.608 269.479,121.848C269.479,122.082 269.41,122.303 269.273,122.51C269.137,122.717 268.939,122.877 268.682,122.99C268.424,123.104 268.132,123.16 267.807,123.16C267.268,123.16 266.857,123.048 266.574,122.824C266.292,122.6 266.111,122.268 266.033,121.828Z" style="fill:rgb(62,62,62);fill-rule:nonzero;"/>
                    <path d="M271.85,122.438L271.951,123.059C271.753,123.1 271.576,123.121 271.42,123.121C271.165,123.121 270.967,123.081 270.826,123C270.686,122.919 270.587,122.813 270.529,122.682C270.472,122.55 270.443,122.274 270.443,121.852L270.443,119.465L269.928,119.465L269.928,118.918L270.443,118.918L270.443,117.891L271.143,117.469L271.143,118.918L271.85,118.918L271.85,119.465L271.143,119.465L271.143,121.891C271.143,122.091 271.155,122.22 271.18,122.277C271.204,122.335 271.245,122.38 271.301,122.414C271.357,122.448 271.437,122.465 271.541,122.465C271.619,122.465 271.722,122.456 271.85,122.438Z" style="fill:rgb(62,62,62);fill-rule:nonzero;"/>
                </g>
            </g>
        </g>
        <g id="Data--More" serif:id="Data  More">
            <g transform="matrix(0,1,1,0,185.923,-63.585)">
                <ellipse cx="262.924" cy="75.755" rx="26.927" ry="26.914" style="fill:rgb(206,206,206);fill-opacity:0.498039;"/>
            </g>
            <g transform="matrix(0.996621,0,0,0.997297,-1.24573,135.583)">
                <clipPath id="_clip12">
                    <path d="M263.81,36.928C248.9,36.928 236.81,49.017 236.82,63.928C236.82,78.84 248.9,90.928 263.82,90.928C278.73,90.928 290.82,78.84 290.82,63.928C290.82,49.017 278.73,36.928 263.81,36.928ZM0,-145.884L292.99,-145.884L292.99,127.856L0,127.856L0,-145.884Z"/>
                </clipPath>
                <g clip-path="url(#_clip12)">
                    <path d="M236.82,63.928C236.81,49.017 248.9,36.928 263.81,36.928C278.73,36.928 290.82,49.017 290.82,63.928C290.82,78.84 278.73,90.928 263.82,90.928C248.9,90.928 236.82,78.84 236.82,63.928" style="fill:none;stroke:rgb(206,206,206);stroke-opacity:0.498039;stroke-width:0.25px;"/>
                </g>
            </g>
            <g transform="matrix(1,0,0,1,-1.24573,120.711)">
                <clipPath id="_clip13">
                    <path d="M234.585,77.191C234.585,62.321 246.624,50.264 261.483,50.264C276.353,50.264 288.392,62.321 288.402,77.191C288.402,92.063 276.353,104.118 261.493,104.118C246.624,104.118 234.585,92.063 234.585,77.191Z"/>
                </clipPath>
                <g clip-path="url(#_clip13)">
                    <rect x="233.867" y="49.553" width="55.239" height="55.276" style="fill:url(#_Linear14);"/>
                </g>
            </g>
            <g transform="matrix(1,0,0,1,-1.46915,46.0416)">
                <g>
                    <path d="M253.885,150.595L253.885,144.869L255.857,144.869C256.303,144.869 256.643,144.896 256.877,144.951C257.205,145.026 257.485,145.163 257.717,145.361C258.019,145.616 258.245,145.942 258.395,146.339C258.544,146.737 258.619,147.19 258.619,147.701C258.619,148.136 258.568,148.521 258.467,148.857C258.365,149.193 258.235,149.471 258.076,149.691C257.917,149.911 257.744,150.084 257.555,150.211C257.366,150.337 257.138,150.433 256.871,150.498C256.604,150.563 256.298,150.595 255.951,150.595L253.885,150.595ZM254.643,149.919L255.865,149.919C256.243,149.919 256.539,149.884 256.754,149.814C256.969,149.744 257.14,149.645 257.268,149.517C257.447,149.337 257.587,149.096 257.688,148.793C257.788,148.489 257.838,148.121 257.838,147.689C257.838,147.09 257.74,146.63 257.543,146.308C257.346,145.987 257.107,145.771 256.826,145.662C256.623,145.584 256.296,145.544 255.846,145.544L254.643,145.544L254.643,149.919Z" style="fill:rgb(62,62,62);fill-rule:nonzero;"/>
                    <path d="M262.279,150.084C262.019,150.305 261.768,150.461 261.527,150.552C261.287,150.643 261.028,150.689 260.752,150.689C260.296,150.689 259.946,150.578 259.701,150.355C259.456,150.132 259.334,149.848 259.334,149.502C259.334,149.298 259.38,149.113 259.473,148.945C259.565,148.777 259.686,148.642 259.836,148.541C259.986,148.439 260.154,148.362 260.342,148.31C260.48,148.274 260.688,148.239 260.967,148.205C261.535,148.137 261.953,148.056 262.221,147.962C262.223,147.866 262.225,147.805 262.225,147.779C262.225,147.492 262.158,147.291 262.025,147.173C261.846,147.015 261.579,146.935 261.225,146.935C260.894,146.935 260.65,146.993 260.492,147.109C260.335,147.225 260.218,147.43 260.143,147.724L259.455,147.63C259.518,147.336 259.621,147.099 259.764,146.918C259.907,146.737 260.114,146.597 260.385,146.5C260.656,146.402 260.969,146.353 261.326,146.353C261.68,146.353 261.968,146.395 262.19,146.478C262.411,146.561 262.574,146.666 262.678,146.793C262.782,146.919 262.855,147.078 262.897,147.271C262.92,147.391 262.932,147.607 262.932,147.919L262.932,148.857C262.932,149.511 262.947,149.924 262.977,150.097C263.007,150.27 263.066,150.436 263.154,150.595L262.42,150.595C262.347,150.449 262.3,150.279 262.279,150.084ZM262.221,148.513C261.966,148.617 261.583,148.706 261.072,148.779C260.783,148.821 260.579,148.867 260.459,148.919C260.339,148.972 260.247,149.048 260.182,149.148C260.117,149.248 260.084,149.36 260.084,149.482C260.084,149.669 260.155,149.826 260.297,149.951C260.439,150.076 260.647,150.138 260.92,150.138C261.191,150.138 261.432,150.079 261.643,149.961C261.854,149.842 262.009,149.68 262.107,149.474C262.183,149.315 262.221,149.081 262.221,148.771L262.221,148.513Z" style="fill:rgb(62,62,62);fill-rule:nonzero;"/>
                    <path d="M265.557,149.966L265.658,150.587C265.46,150.629 265.283,150.65 265.127,150.65C264.872,150.65 264.674,150.61 264.533,150.529C264.393,150.448 264.294,150.342 264.236,150.211C264.179,150.079 264.15,149.802 264.15,149.38L264.15,146.994L263.635,146.994L263.635,146.447L264.15,146.447L264.15,145.419L264.85,144.998L264.85,146.447L265.557,146.447L265.557,146.994L264.85,146.994L264.85,149.419C264.85,149.62 264.862,149.749 264.887,149.806C264.912,149.864 264.952,149.909 265.008,149.943C265.064,149.977 265.144,149.994 265.248,149.994C265.326,149.994 265.429,149.985 265.557,149.966Z" style="fill:rgb(62,62,62);fill-rule:nonzero;"/>
                    <path d="M268.951,150.084C268.691,150.305 268.44,150.461 268.199,150.552C267.958,150.643 267.7,150.689 267.424,150.689C266.968,150.689 266.618,150.578 266.373,150.355C266.128,150.132 266.006,149.848 266.006,149.502C266.006,149.298 266.052,149.113 266.145,148.945C266.237,148.777 266.358,148.642 266.508,148.541C266.658,148.439 266.826,148.362 267.014,148.31C267.152,148.274 267.36,148.239 267.639,148.205C268.206,148.137 268.624,148.056 268.893,147.962C268.895,147.866 268.897,147.805 268.897,147.779C268.897,147.492 268.83,147.291 268.697,147.173C268.518,147.015 268.251,146.935 267.897,146.935C267.566,146.935 267.322,146.993 267.164,147.109C267.007,147.225 266.89,147.43 266.815,147.724L266.127,147.63C266.19,147.336 266.292,147.099 266.436,146.918C266.579,146.737 266.786,146.597 267.057,146.5C267.328,146.402 267.641,146.353 267.998,146.353C268.352,146.353 268.64,146.395 268.861,146.478C269.083,146.561 269.246,146.666 269.35,146.793C269.454,146.919 269.527,147.078 269.568,147.271C269.592,147.391 269.604,147.607 269.604,147.919L269.604,148.857C269.604,149.511 269.619,149.924 269.649,150.097C269.678,150.27 269.738,150.436 269.826,150.595L269.092,150.595C269.019,150.449 268.972,150.279 268.951,150.084ZM268.893,148.513C268.637,148.617 268.255,148.706 267.744,148.779C267.455,148.821 267.251,148.867 267.131,148.919C267.011,148.972 266.919,149.048 266.854,149.148C266.788,149.248 266.756,149.36 266.756,149.482C266.756,149.669 266.827,149.826 266.969,149.951C267.111,150.076 267.318,150.138 267.592,150.138C267.863,150.138 268.104,150.079 268.315,149.961C268.525,149.842 268.68,149.68 268.779,149.474C268.855,149.315 268.893,149.081 268.893,148.771L268.893,148.513Z" style="fill:rgb(62,62,62);fill-rule:nonzero;"/>
                    <path d="M253.197,158.857L253.197,153.13L254.338,153.13L255.693,157.185C255.818,157.563 255.91,157.845 255.967,158.033C256.032,157.824 256.134,157.518 256.272,157.115L257.643,153.13L258.662,153.13L258.662,158.857L257.932,158.857L257.932,154.064L256.268,158.857L255.584,158.857L253.928,153.982L253.928,158.857L253.197,158.857Z" style="fill:rgb(62,62,62);fill-rule:nonzero;"/>
                    <path d="M259.533,156.783C259.533,156.015 259.747,155.446 260.174,155.076C260.531,154.768 260.966,154.615 261.479,154.615C262.049,154.615 262.515,154.802 262.877,155.175C263.239,155.549 263.42,156.065 263.42,156.724C263.42,157.258 263.34,157.678 263.18,157.984C263.02,158.29 262.787,158.528 262.481,158.697C262.175,158.866 261.841,158.951 261.479,158.951C260.898,158.951 260.428,158.765 260.07,158.392C259.712,158.02 259.533,157.483 259.533,156.783ZM260.256,156.783C260.256,157.314 260.372,157.712 260.604,157.976C260.835,158.24 261.127,158.373 261.479,158.373C261.828,158.373 262.118,158.24 262.35,157.974C262.581,157.709 262.697,157.304 262.697,156.759C262.697,156.246 262.581,155.858 262.348,155.593C262.115,155.329 261.825,155.197 261.479,155.197C261.127,155.197 260.835,155.328 260.604,155.591C260.372,155.854 260.256,156.252 260.256,156.783Z" style="fill:rgb(62,62,62);fill-rule:nonzero;"/>
                    <path d="M264.236,158.857L264.236,154.709L264.869,154.709L264.869,155.337C265.031,155.043 265.18,154.849 265.316,154.755C265.453,154.662 265.604,154.615 265.768,154.615C266.005,154.615 266.246,154.69 266.49,154.841L266.248,155.494C266.076,155.392 265.904,155.341 265.732,155.341C265.579,155.341 265.441,155.388 265.318,155.48C265.196,155.572 265.109,155.701 265.057,155.865C264.979,156.115 264.94,156.388 264.94,156.685L264.94,158.857L264.236,158.857Z" style="fill:rgb(62,62,62);fill-rule:nonzero;"/>
                    <path d="M269.748,157.521L270.475,157.611C270.36,158.035 270.148,158.365 269.838,158.599C269.528,158.834 269.132,158.951 268.65,158.951C268.044,158.951 267.563,158.764 267.207,158.39C266.852,158.017 266.674,157.492 266.674,156.818C266.674,156.12 266.854,155.578 267.213,155.193C267.572,154.808 268.038,154.615 268.611,154.615C269.166,154.615 269.619,154.804 269.971,155.181C270.322,155.559 270.498,156.09 270.498,156.775C270.498,156.817 270.497,156.879 270.494,156.962L267.4,156.962C267.427,157.418 267.555,157.767 267.787,158.009C268.019,158.252 268.308,158.373 268.654,158.373C268.912,158.373 269.132,158.305 269.315,158.169C269.497,158.034 269.641,157.818 269.748,157.521ZM267.44,156.384L269.756,156.384C269.725,156.035 269.636,155.774 269.49,155.599C269.266,155.328 268.976,155.193 268.619,155.193C268.296,155.193 268.025,155.301 267.805,155.517C267.585,155.733 267.463,156.022 267.44,156.384Z" style="fill:rgb(62,62,62);fill-rule:nonzero;"/>
                </g>
            </g>
            <g transform="matrix(0,0.997297,0.996621,0,195.101,-63.7682)">
                <circle cx="262.38" cy="65.368" r="27" style="fill:none;stroke:rgb(62,62,62);stroke-width:0.25px;"/>
            </g>
        </g>
        <g id="PUSH_CMD">
            <g transform="matrix(0.996621,0,0,0.997297,-1.24573,-10.9035)">
                <path d="M55.375,137.37L122.05,137.37" style="fill:none;stroke:rgb(62,62,62);stroke-width:1px;"/>
            </g>
            <g transform="matrix(-0.894049,0.447969,0.447969,0.894049,165.793,-62.4105)">
                <path d="M120.295,150.57L128.132,150.57C126.164,149.091 124.998,146.764 124.995,144.289L124.986,144.293L120.295,150.57Z" style="fill:rgb(62,62,62);"/>
            </g>
            <g transform="matrix(1,0,0,1,5.71972,-37.6949)">
                <path d="M59.617,160.93L59.617,155.203L61.777,155.203C62.158,155.203 62.448,155.221 62.648,155.258C62.93,155.305 63.165,155.394 63.355,155.525C63.546,155.657 63.699,155.841 63.814,156.078C63.93,156.315 63.988,156.576 63.988,156.859C63.988,157.346 63.833,157.759 63.523,158.096C63.214,158.433 62.654,158.602 61.844,158.602L60.375,158.602L60.375,160.93L59.617,160.93ZM60.375,157.926L61.855,157.926C62.345,157.926 62.693,157.835 62.898,157.652C63.104,157.47 63.207,157.214 63.207,156.883C63.207,156.643 63.147,156.438 63.025,156.268C62.904,156.097 62.745,155.984 62.547,155.93C62.419,155.896 62.184,155.879 61.84,155.879L60.375,155.879L60.375,157.926Z" style="fill:rgb(62,62,62);fill-rule:nonzero;"/>
                <path d="M68.711,155.203L69.469,155.203L69.469,158.512C69.469,159.087 69.404,159.544 69.273,159.883C69.143,160.221 68.908,160.497 68.568,160.709C68.229,160.921 67.783,161.027 67.23,161.027C66.694,161.027 66.255,160.935 65.914,160.75C65.573,160.565 65.329,160.298 65.184,159.947C65.038,159.597 64.965,159.119 64.965,158.512L64.965,155.203L65.723,155.203L65.723,158.508C65.723,159.005 65.769,159.372 65.861,159.608C65.954,159.843 66.113,160.025 66.338,160.152C66.563,160.28 66.839,160.344 67.164,160.344C67.721,160.344 68.119,160.218 68.355,159.965C68.592,159.712 68.711,159.227 68.711,158.508L68.711,155.203Z" style="fill:rgb(62,62,62);fill-rule:nonzero;"/>
                <path d="M70.473,159.09L71.188,159.027C71.221,159.314 71.3,159.549 71.424,159.733C71.548,159.916 71.74,160.065 72,160.178C72.26,160.291 72.553,160.348 72.879,160.348C73.168,160.348 73.423,160.305 73.645,160.219C73.866,160.133 74.031,160.015 74.139,159.865C74.247,159.716 74.301,159.552 74.301,159.375C74.301,159.195 74.249,159.039 74.145,158.904C74.04,158.77 73.869,158.658 73.629,158.567C73.475,158.507 73.135,158.414 72.609,158.287C72.083,158.161 71.715,158.042 71.504,157.93C71.23,157.787 71.027,157.609 70.893,157.397C70.758,157.184 70.691,156.947 70.691,156.684C70.691,156.395 70.773,156.124 70.938,155.873C71.102,155.622 71.341,155.431 71.656,155.301C71.971,155.171 72.322,155.106 72.707,155.106C73.132,155.106 73.506,155.174 73.83,155.311C74.154,155.447 74.404,155.649 74.578,155.914C74.753,156.18 74.846,156.481 74.859,156.817L74.133,156.871C74.094,156.509 73.962,156.236 73.736,156.051C73.511,155.866 73.178,155.774 72.738,155.774C72.28,155.774 71.946,155.858 71.736,156.025C71.527,156.193 71.422,156.396 71.422,156.633C71.422,156.839 71.496,157.008 71.645,157.141C71.79,157.274 72.171,157.41 72.787,157.549C73.403,157.688 73.826,157.81 74.055,157.914C74.388,158.068 74.634,158.262 74.793,158.498C74.952,158.734 75.031,159.005 75.031,159.313C75.031,159.617 74.944,159.904 74.77,160.174C74.595,160.443 74.344,160.653 74.018,160.803C73.691,160.953 73.323,161.027 72.914,161.027C72.396,161.027 71.962,160.952 71.611,160.801C71.261,160.65 70.986,160.423 70.787,160.119C70.588,159.816 70.483,159.473 70.473,159.09Z" style="fill:rgb(62,62,62);fill-rule:nonzero;"/>
                <path d="M76.09,160.93L76.09,155.203L76.848,155.203L76.848,157.555L79.824,157.555L79.824,155.203L80.582,155.203L80.582,160.93L79.824,160.93L79.824,158.231L76.848,158.231L76.848,160.93L76.09,160.93Z" style="fill:rgb(62,62,62);fill-rule:nonzero;"/>
                <rect x="81.105" y="162.012" width="4.66" height="0.508" style="fill:rgb(62,62,62);fill-rule:nonzero;"/>
                <path d="M90.379,158.922L91.137,159.113C90.978,159.736 90.692,160.21 90.279,160.537C89.867,160.864 89.362,161.027 88.766,161.027C88.148,161.027 87.647,160.902 87.26,160.65C86.873,160.399 86.579,160.035 86.377,159.559C86.175,159.082 86.074,158.57 86.074,158.024C86.074,157.427 86.188,156.907 86.416,156.463C86.644,156.019 86.968,155.682 87.389,155.451C87.809,155.221 88.272,155.106 88.777,155.106C89.35,155.106 89.832,155.251 90.223,155.543C90.613,155.835 90.885,156.245 91.039,156.774L90.293,156.949C90.16,156.533 89.967,156.229 89.715,156.039C89.462,155.849 89.145,155.754 88.762,155.754C88.322,155.754 87.954,155.859 87.658,156.07C87.363,156.281 87.155,156.565 87.035,156.92C86.915,157.275 86.855,157.642 86.855,158.02C86.855,158.507 86.926,158.932 87.068,159.295C87.21,159.658 87.431,159.93 87.73,160.109C88.03,160.289 88.354,160.379 88.703,160.379C89.128,160.379 89.487,160.257 89.781,160.012C90.076,159.767 90.275,159.404 90.379,158.922Z" style="fill:rgb(62,62,62);fill-rule:nonzero;"/>
                <path d="M92.047,160.93L92.047,155.203L93.188,155.203L94.543,159.258C94.668,159.636 94.759,159.918 94.816,160.106C94.882,159.897 94.983,159.591 95.121,159.188L96.492,155.203L97.512,155.203L97.512,160.93L96.781,160.93L96.781,156.137L95.117,160.93L94.434,160.93L92.777,156.055L92.777,160.93L92.047,160.93Z" style="fill:rgb(62,62,62);fill-rule:nonzero;"/>
                <path d="M98.734,160.93L98.734,155.203L100.707,155.203C101.152,155.203 101.492,155.231 101.727,155.285C102.055,155.361 102.335,155.497 102.566,155.695C102.869,155.951 103.094,156.277 103.244,156.674C103.394,157.071 103.469,157.525 103.469,158.035C103.469,158.47 103.418,158.856 103.316,159.192C103.215,159.527 103.085,159.805 102.926,160.025C102.767,160.246 102.593,160.419 102.404,160.545C102.216,160.671 101.988,160.767 101.721,160.832C101.454,160.897 101.147,160.93 100.801,160.93L98.734,160.93ZM99.492,160.254L100.715,160.254C101.092,160.254 101.389,160.219 101.604,160.149C101.818,160.078 101.99,159.979 102.117,159.852C102.297,159.672 102.437,159.43 102.537,159.127C102.637,158.824 102.688,158.456 102.688,158.024C102.688,157.425 102.589,156.964 102.393,156.643C102.196,156.321 101.957,156.106 101.676,155.996C101.473,155.918 101.146,155.879 100.695,155.879L99.492,155.879L99.492,160.254Z" style="fill:rgb(62,62,62);fill-rule:nonzero;"/>
            </g>
        </g>
        <g>
            <g transform="matrix(0.561362,-0.824043,-0.823484,-0.561742,230.837,357.234)">
                <path d="M162.5,173.09C172.109,158.994 226.112,194.73 248.96,173.09" style="fill:none;stroke:rgb(62,62,62);stroke-width:1px;"/>
            </g>
            <g transform="matrix(1,0,0,1,-1.24573,-165.038)">
                <path d="M234.585,219.328L227.967,223.557C228.834,221.243 228.565,218.66 227.24,216.575L234.585,219.328Z" style="fill:rgb(62,62,62);"/>
            </g>
        </g>
        <g>
            <g transform="matrix(0.56133,0.824065,0.823506,-0.56171,4.59983,49.2829)">
                <path d="M162.497,101.647C172.106,115.744 226.114,80.007 248.963,101.647" style="fill:none;stroke:rgb(62,62,62);stroke-width:1px;"/>
            </g>
            <g transform="matrix(1,0,0,1,-1.24573,119.244)">
                <path d="M234.585,78.658L227.24,81.416C228.565,79.334 228.834,76.747 227.967,74.434L234.585,78.658Z" style="fill:rgb(62,62,62);"/>
            </g>
        </g>
        <g id="DATA_ACC-lower" serif:id="DATA_ACC lower">
            <g transform="matrix(0.996621,0,0,0.997297,-1.24573,138.025)">
                <path d="M262.38,87.04C262.38,105.04 238.73,105.04 215.09,105.04C185.34,105.04 155.6,105.04 154.41,20.368" style="fill:none;stroke:rgb(62,62,62);stroke-width:1px;"/>
            </g>
            <g transform="matrix(1,0,0,1,-1.24573,38.0014)">
                <path d="M153.858,115.021L157.406,122.022C155.194,120.935 152.593,120.945 150.39,122.072L153.858,115.021Z" style="fill:rgb(62,62,62);"/>
            </g>
            <g transform="matrix(1,0,0,1,112.266,11.0937)">
                <path d="M79.617,239.73L79.617,234.004L81.59,234.004C82.035,234.004 82.375,234.031 82.609,234.086C82.938,234.161 83.217,234.298 83.449,234.496C83.751,234.751 83.977,235.077 84.127,235.475C84.277,235.872 84.352,236.326 84.352,236.836C84.352,237.271 84.301,237.656 84.199,237.992C84.098,238.328 83.967,238.606 83.809,238.826C83.65,239.046 83.476,239.219 83.287,239.346C83.098,239.472 82.87,239.568 82.604,239.633C82.337,239.698 82.03,239.73 81.684,239.73L79.617,239.73ZM80.375,239.055L81.598,239.055C81.975,239.055 82.272,239.02 82.486,238.949C82.701,238.879 82.872,238.78 83,238.652C83.18,238.473 83.32,238.231 83.42,237.928C83.52,237.624 83.57,237.257 83.57,236.824C83.57,236.225 83.472,235.765 83.275,235.443C83.079,235.122 82.84,234.906 82.559,234.797C82.355,234.719 82.029,234.68 81.578,234.68L80.375,234.68L80.375,239.055Z" style="fill:rgb(62,62,62);fill-rule:nonzero;"/>
                <path d="M84.766,239.73L86.965,234.004L87.781,234.004L90.125,239.73L89.262,239.73L88.594,237.996L86.199,237.996L85.57,239.73L84.766,239.73ZM86.418,237.379L88.359,237.379L87.762,235.793C87.579,235.311 87.444,234.915 87.355,234.605C87.283,234.973 87.18,235.337 87.047,235.699L86.418,237.379Z" style="fill:rgb(62,62,62);fill-rule:nonzero;"/>
                <path d="M91.594,239.73L91.594,234.68L89.707,234.68L89.707,234.004L94.246,234.004L94.246,234.68L92.352,234.68L92.352,239.73L91.594,239.73Z" style="fill:rgb(62,62,62);fill-rule:nonzero;"/>
                <path d="M93.801,239.73L96,234.004L96.816,234.004L99.16,239.73L98.297,239.73L97.629,237.996L95.234,237.996L94.605,239.73L93.801,239.73ZM95.453,237.379L97.395,237.379L96.797,235.793C96.615,235.311 96.479,234.915 96.391,234.605C96.318,234.973 96.215,235.337 96.082,235.699L95.453,237.379Z" style="fill:rgb(62,62,62);fill-rule:nonzero;"/>
                <rect x="99.027" y="240.813" width="4.66" height="0.508" style="fill:rgb(62,62,62);fill-rule:nonzero;"/>
                <path d="M103.586,239.73L105.785,234.004L106.602,234.004L108.945,239.73L108.082,239.73L107.414,237.996L105.02,237.996L104.391,239.73L103.586,239.73ZM105.238,237.379L107.18,237.379L106.582,235.793C106.4,235.311 106.264,234.915 106.176,234.605C106.103,234.973 106,235.337 105.867,235.699L105.238,237.379Z" style="fill:rgb(62,62,62);fill-rule:nonzero;"/>
                <path d="M113.637,237.723L114.395,237.914C114.236,238.536 113.95,239.011 113.537,239.338C113.124,239.665 112.62,239.828 112.023,239.828C111.406,239.828 110.904,239.702 110.518,239.451C110.131,239.2 109.837,238.836 109.635,238.359C109.433,237.883 109.332,237.371 109.332,236.824C109.332,236.228 109.446,235.708 109.674,235.264C109.902,234.82 110.226,234.482 110.647,234.252C111.067,234.021 111.53,233.906 112.035,233.906C112.608,233.906 113.09,234.052 113.48,234.344C113.871,234.635 114.143,235.046 114.297,235.574L113.551,235.75C113.418,235.333 113.225,235.03 112.973,234.84C112.72,234.65 112.402,234.555 112.02,234.555C111.579,234.555 111.212,234.66 110.916,234.871C110.62,235.082 110.413,235.365 110.293,235.721C110.173,236.076 110.113,236.443 110.113,236.82C110.113,237.307 110.184,237.732 110.326,238.096C110.468,238.459 110.689,238.73 110.988,238.91C111.288,239.09 111.612,239.18 111.961,239.18C112.385,239.18 112.745,239.057 113.039,238.813C113.333,238.568 113.533,238.204 113.637,237.723Z" style="fill:rgb(62,62,62);fill-rule:nonzero;"/>
                <path d="M119.414,237.723L120.172,237.914C120.013,238.536 119.727,239.011 119.314,239.338C118.902,239.665 118.397,239.828 117.801,239.828C117.184,239.828 116.682,239.702 116.295,239.451C115.908,239.2 115.614,238.836 115.412,238.359C115.21,237.883 115.109,237.371 115.109,236.824C115.109,236.228 115.223,235.708 115.451,235.264C115.679,234.82 116.003,234.482 116.424,234.252C116.844,234.021 117.307,233.906 117.813,233.906C118.385,233.906 118.867,234.052 119.258,234.344C119.648,234.635 119.921,235.046 120.074,235.574L119.328,235.75C119.195,235.333 119.003,235.03 118.75,234.84C118.497,234.65 118.18,234.555 117.797,234.555C117.357,234.555 116.989,234.66 116.693,234.871C116.398,235.082 116.19,235.365 116.07,235.721C115.951,236.076 115.891,236.443 115.891,236.82C115.891,237.307 115.962,237.732 116.104,238.096C116.245,238.459 116.466,238.73 116.766,238.91C117.065,239.09 117.389,239.18 117.738,239.18C118.163,239.18 118.522,239.057 118.816,238.813C119.111,238.568 119.31,238.204 119.414,237.723Z" style="fill:rgb(62,62,62);fill-rule:nonzero;"/>
            </g>
        </g>
        <g id="DATA_ACC-upper" serif:id="DATA_ACC upper">
            <g transform="matrix(0.996621,0,0,0.997297,-1.24573,-159.83)">
                <path d="M262.38,187.7C262.38,169.7 242.72,169.7 225.44,169.7C191.28,169.7 166.37,169.7 120.53,169.7C82.665,169.7 30.524,169.7 28.44,254.37" style="fill:none;stroke:rgb(62,62,62);stroke-width:1px;"/>
            </g>
            <g transform="matrix(1,0,0,1,-1.24573,-83.8184)">
                <path d="M28.279,182.986L24.857,175.926C27.051,177.063 29.65,177.093 31.872,176.015L28.279,182.986Z" style="fill:rgb(62,62,62);"/>
            </g>
            <g transform="matrix(1,0,0,1,19.5214,-40.9062)">
                <path d="M117.873,46.73L117.873,41.004L119.846,41.004C120.291,41.004 120.631,41.031 120.865,41.086C121.193,41.161 121.473,41.298 121.705,41.496C122.007,41.751 122.233,42.077 122.383,42.475C122.533,42.872 122.607,43.326 122.607,43.836C122.607,44.271 122.557,44.656 122.455,44.992C122.354,45.328 122.223,45.606 122.064,45.826C121.906,46.046 121.732,46.219 121.543,46.346C121.354,46.472 121.126,46.568 120.859,46.633C120.592,46.698 120.286,46.73 119.939,46.73L117.873,46.73ZM118.631,46.055L119.854,46.055C120.231,46.055 120.527,46.02 120.742,45.949C120.957,45.879 121.128,45.78 121.256,45.652C121.436,45.473 121.576,45.231 121.676,44.928C121.776,44.624 121.826,44.257 121.826,43.824C121.826,43.225 121.728,42.765 121.531,42.443C121.335,42.122 121.096,41.906 120.814,41.797C120.611,41.719 120.285,41.68 119.834,41.68L118.631,41.68L118.631,46.055Z" style="fill:rgb(62,62,62);fill-rule:nonzero;"/>
                <path d="M123.021,46.73L125.221,41.004L126.037,41.004L128.381,46.73L127.518,46.73L126.85,44.996L124.455,44.996L123.826,46.73L123.021,46.73ZM124.674,44.379L126.615,44.379L126.018,42.793C125.835,42.311 125.7,41.915 125.611,41.605C125.538,41.973 125.436,42.337 125.303,42.699L124.674,44.379Z" style="fill:rgb(62,62,62);fill-rule:nonzero;"/>
                <path d="M129.85,46.73L129.85,41.68L127.963,41.68L127.963,41.004L132.502,41.004L132.502,41.68L130.607,41.68L130.607,46.73L129.85,46.73Z" style="fill:rgb(62,62,62);fill-rule:nonzero;"/>
                <path d="M132.057,46.73L134.256,41.004L135.072,41.004L137.416,46.73L136.553,46.73L135.885,44.996L133.49,44.996L132.861,46.73L132.057,46.73ZM133.709,44.379L135.65,44.379L135.053,42.793C134.87,42.311 134.735,41.915 134.646,41.605C134.574,41.973 134.471,42.337 134.338,42.699L133.709,44.379Z" style="fill:rgb(62,62,62);fill-rule:nonzero;"/>
                <rect x="137.283" y="47.813" width="4.66" height="0.508" style="fill:rgb(62,62,62);fill-rule:nonzero;"/>
                <path d="M141.842,46.73L144.041,41.004L144.857,41.004L147.201,46.73L146.338,46.73L145.67,44.996L143.275,44.996L142.646,46.73L141.842,46.73ZM143.494,44.379L145.436,44.379L144.838,42.793C144.656,42.311 144.52,41.915 144.432,41.605C144.359,41.973 144.256,42.337 144.123,42.699L143.494,44.379Z" style="fill:rgb(62,62,62);fill-rule:nonzero;"/>
                <path d="M151.893,44.723L152.65,44.914C152.492,45.536 152.206,46.011 151.793,46.338C151.38,46.665 150.876,46.828 150.279,46.828C149.662,46.828 149.16,46.702 148.773,46.451C148.387,46.2 148.092,45.836 147.891,45.359C147.689,44.883 147.588,44.371 147.588,43.824C147.588,43.228 147.702,42.708 147.93,42.264C148.158,41.82 148.482,41.482 148.902,41.252C149.323,41.021 149.786,40.906 150.291,40.906C150.864,40.906 151.346,41.052 151.736,41.344C152.127,41.635 152.399,42.046 152.553,42.574L151.807,42.75C151.674,42.333 151.481,42.03 151.229,41.84C150.976,41.65 150.658,41.555 150.275,41.555C149.835,41.555 149.467,41.66 149.172,41.871C148.876,42.082 148.669,42.365 148.549,42.721C148.429,43.076 148.369,43.443 148.369,43.82C148.369,44.307 148.44,44.732 148.582,45.096C148.724,45.459 148.945,45.73 149.244,45.91C149.544,46.09 149.868,46.18 150.217,46.18C150.641,46.18 151.001,46.057 151.295,45.813C151.589,45.568 151.788,45.204 151.893,44.723Z" style="fill:rgb(62,62,62);fill-rule:nonzero;"/>
                <path d="M157.67,44.723L158.428,44.914C158.269,45.536 157.983,46.011 157.57,46.338C157.158,46.665 156.653,46.828 156.057,46.828C155.439,46.828 154.938,46.702 154.551,46.451C154.164,46.2 153.87,45.836 153.668,45.359C153.466,44.883 153.365,44.371 153.365,43.824C153.365,43.228 153.479,42.708 153.707,42.264C153.935,41.82 154.259,41.482 154.68,41.252C155.1,41.021 155.563,40.906 156.068,40.906C156.641,40.906 157.123,41.052 157.514,41.344C157.904,41.635 158.176,42.046 158.33,42.574L157.584,42.75C157.451,42.333 157.258,42.03 157.006,41.84C156.753,41.65 156.436,41.555 156.053,41.555C155.613,41.555 155.245,41.66 154.949,41.871C154.654,42.082 154.446,42.365 154.326,42.721C154.206,43.076 154.146,43.443 154.146,43.82C154.146,44.307 154.217,44.732 154.359,45.096C154.501,45.459 154.722,45.73 155.021,45.91C155.321,46.09 155.645,46.18 155.994,46.18C156.419,46.18 156.778,46.057 157.072,45.813C157.367,45.568 157.566,45.204 157.67,44.723Z" style="fill:rgb(62,62,62);fill-rule:nonzero;"/>
            </g>
        </g>
    </g>
    <defs>
        <linearGradient id="_Linear3" x1="0" y1="0" x2="1" y2="0" gradientUnits="userSpaceOnUse" gradientTransform="matrix(3.38264e-15,-55.2802,-55.2427,-3.38493e-15,28.2791,176.63)"><stop offset="0" style="stop-color:white;stop-opacity:1"/><stop offset="1" style="stop-color:rgb(245,245,245);stop-opacity:1"/></linearGradient>
        <linearGradient id="_Linear5" x1="0" y1="0" x2="1" y2="0" gradientUnits="userSpaceOnUse" gradientTransform="matrix(2.43614e-15,-39.8121,-39.7851,-2.43779e-15,28.2791,168.903)"><stop offset="0" style="stop-color:rgb(240,240,240);stop-opacity:1"/><stop offset="1" style="stop-color:white;stop-opacity:1"/></linearGradient>
        <linearGradient id="_Linear8" x1="0" y1="0" x2="1" y2="0" gradientUnits="userSpaceOnUse" gradientTransform="matrix(3.38264e-15,-55.2802,-55.2427,-3.38493e-15,153.848,176.63)"><stop offset="0" style="stop-color:rgb(240,240,240);stop-opacity:1"/><stop offset="1" style="stop-color:white;stop-opacity:1"/></linearGradient>
        <linearGradient id="_Linear11" x1="0" y1="0" x2="1" y2="0" gradientUnits="userSpaceOnUse" gradientTransform="matrix(-0.00996621,-55.2802,-55.2427,0.00997297,261.493,248.435)"><stop offset="0" style="stop-color:rgb(240,240,240);stop-opacity:1"/><stop offset="1" style="stop-color:white;stop-opacity:1"/></linearGradient>
        <linearGradient id="_Linear14" x1="0" y1="0" x2="1" y2="0" gradientUnits="userSpaceOnUse" gradientTransform="matrix(-0.00996621,-55.2752,-55.2377,0.00997297,261.493,104.829)"><stop offset="0" style="stop-color:rgb(240,240,240);stop-opacity:1"/><stop offset="1" style="stop-color:white;stop-opacity:1"/></linearGradient>
    </defs>
</svg>
